<mxfile host="app.diagrams.net" agent="Mozilla/5.0 (Windows NT 10.0; Win64; x64) AppleWebKit/537.36 (KHTML, like Gecko) Chrome/134.0.0.0 Safari/537.36" version="26.2.4">
  <diagram name="Σελίδα-1" id="uCrTnOm6Ig0l6soH2Pfp">
    <mxGraphModel dx="1392" dy="749" grid="1" gridSize="10" guides="1" tooltips="1" connect="1" arrows="1" fold="1" page="1" pageScale="1" pageWidth="827" pageHeight="1169" math="0" shadow="0">
      <root>
        <object label="" id="0">
          <mxCell />
        </object>
        <mxCell id="1" parent="0" />
        <mxCell id="3s-fKFd-hLVdxvox_SW1-1" value="Lost Item Owner" style="shape=umlActor;verticalLabelPosition=bottom;verticalAlign=top;html=1;outlineConnect=0;fillColor=#fff2cc;strokeColor=#d6b656;" vertex="1" parent="1">
          <mxGeometry x="130" y="120" width="30" height="60" as="geometry" />
        </mxCell>
        <mxCell id="3s-fKFd-hLVdxvox_SW1-2" value="Finder" style="shape=umlActor;verticalLabelPosition=bottom;verticalAlign=top;html=1;outlineConnect=0;fillColor=#fff2cc;strokeColor=#d6b656;" vertex="1" parent="1">
          <mxGeometry x="130" y="430" width="30" height="60" as="geometry" />
        </mxCell>
        <mxCell id="3s-fKFd-hLVdxvox_SW1-3" value="Moderator" style="shape=umlActor;verticalLabelPosition=bottom;verticalAlign=top;html=1;outlineConnect=0;fillColor=#fff2cc;strokeColor=#d6b656;" vertex="1" parent="1">
          <mxGeometry x="130" y="555" width="30" height="60" as="geometry" />
        </mxCell>
        <mxCell id="3s-fKFd-hLVdxvox_SW1-5" value="Local Business Owner" style="shape=umlActor;verticalLabelPosition=bottom;verticalAlign=top;html=1;outlineConnect=0;fillColor=#fff2cc;strokeColor=#d6b656;" vertex="1" parent="1">
          <mxGeometry x="130" y="300" width="30" height="60" as="geometry" />
        </mxCell>
        <mxCell id="3s-fKFd-hLVdxvox_SW1-7" value="" style="endArrow=none;html=1;rounded=0;entryX=0;entryY=0.5;entryDx=0;entryDy=0;" edge="1" parent="1" source="3s-fKFd-hLVdxvox_SW1-1" target="3s-fKFd-hLVdxvox_SW1-6">
          <mxGeometry width="50" height="50" relative="1" as="geometry">
            <mxPoint x="160" y="80" as="sourcePoint" />
            <mxPoint x="210" y="20" as="targetPoint" />
          </mxGeometry>
        </mxCell>
        <mxCell id="3s-fKFd-hLVdxvox_SW1-10" value="" style="endArrow=none;html=1;rounded=0;entryX=0.033;entryY=0.714;entryDx=0;entryDy=0;entryPerimeter=0;" edge="1" parent="1" source="3s-fKFd-hLVdxvox_SW1-2" target="3s-fKFd-hLVdxvox_SW1-8">
          <mxGeometry width="50" height="50" relative="1" as="geometry">
            <mxPoint x="160" y="170" as="sourcePoint" />
            <mxPoint x="210" y="120" as="targetPoint" />
          </mxGeometry>
        </mxCell>
        <mxCell id="3s-fKFd-hLVdxvox_SW1-12" value="" style="endArrow=none;html=1;rounded=0;entryX=0;entryY=0.5;entryDx=0;entryDy=0;" edge="1" parent="1" source="3s-fKFd-hLVdxvox_SW1-2" target="3s-fKFd-hLVdxvox_SW1-11">
          <mxGeometry width="50" height="50" relative="1" as="geometry">
            <mxPoint x="160" y="180" as="sourcePoint" />
            <mxPoint x="210" y="130" as="targetPoint" />
          </mxGeometry>
        </mxCell>
        <mxCell id="3s-fKFd-hLVdxvox_SW1-14" value="" style="endArrow=none;html=1;rounded=0;entryX=0.026;entryY=0.375;entryDx=0;entryDy=0;entryPerimeter=0;" edge="1" parent="1" source="3s-fKFd-hLVdxvox_SW1-1" target="3s-fKFd-hLVdxvox_SW1-13">
          <mxGeometry width="50" height="50" relative="1" as="geometry">
            <mxPoint x="160" y="90" as="sourcePoint" />
            <mxPoint x="210" y="40" as="targetPoint" />
          </mxGeometry>
        </mxCell>
        <mxCell id="3s-fKFd-hLVdxvox_SW1-16" value="" style="endArrow=none;html=1;rounded=0;exitX=0.07;exitY=0.236;exitDx=0;exitDy=0;exitPerimeter=0;" edge="1" parent="1" source="3s-fKFd-hLVdxvox_SW1-15" target="3s-fKFd-hLVdxvox_SW1-1">
          <mxGeometry width="50" height="50" relative="1" as="geometry">
            <mxPoint x="320" y="170" as="sourcePoint" />
            <mxPoint x="160" y="140" as="targetPoint" />
          </mxGeometry>
        </mxCell>
        <mxCell id="3s-fKFd-hLVdxvox_SW1-22" value="" style="endArrow=none;html=1;rounded=0;entryX=0;entryY=0.5;entryDx=0;entryDy=0;" edge="1" parent="1" source="3s-fKFd-hLVdxvox_SW1-5" target="3s-fKFd-hLVdxvox_SW1-19">
          <mxGeometry width="50" height="50" relative="1" as="geometry">
            <mxPoint x="160" y="270" as="sourcePoint" />
            <mxPoint x="210" y="220" as="targetPoint" />
          </mxGeometry>
        </mxCell>
        <mxCell id="3s-fKFd-hLVdxvox_SW1-24" value="" style="endArrow=none;html=1;rounded=0;exitX=0.113;exitY=0.175;exitDx=0;exitDy=0;exitPerimeter=0;" edge="1" parent="1" source="3s-fKFd-hLVdxvox_SW1-23" target="3s-fKFd-hLVdxvox_SW1-5">
          <mxGeometry width="50" height="50" relative="1" as="geometry">
            <mxPoint x="287.5999999999999" y="329.99999999999994" as="sourcePoint" />
            <mxPoint x="160" y="282.2" as="targetPoint" />
          </mxGeometry>
        </mxCell>
        <mxCell id="3s-fKFd-hLVdxvox_SW1-26" value="" style="endArrow=none;html=1;rounded=0;entryX=0;entryY=0.5;entryDx=0;entryDy=0;" edge="1" parent="1" source="3s-fKFd-hLVdxvox_SW1-3" target="3s-fKFd-hLVdxvox_SW1-25">
          <mxGeometry width="50" height="50" relative="1" as="geometry">
            <mxPoint x="160" y="610" as="sourcePoint" />
            <mxPoint x="210" y="560" as="targetPoint" />
          </mxGeometry>
        </mxCell>
        <mxCell id="3s-fKFd-hLVdxvox_SW1-28" value="" style="endArrow=none;html=1;rounded=0;entryX=0;entryY=0.5;entryDx=0;entryDy=0;" edge="1" parent="1" source="3s-fKFd-hLVdxvox_SW1-3" target="3s-fKFd-hLVdxvox_SW1-27">
          <mxGeometry width="50" height="50" relative="1" as="geometry">
            <mxPoint x="160" y="620" as="sourcePoint" />
            <mxPoint x="210" y="570" as="targetPoint" />
          </mxGeometry>
        </mxCell>
        <mxCell id="3s-fKFd-hLVdxvox_SW1-29" value="" style="swimlane;startSize=0;" vertex="1" parent="1">
          <mxGeometry x="269" y="50" width="290" height="660" as="geometry" />
        </mxCell>
        <mxCell id="3s-fKFd-hLVdxvox_SW1-30" value="&lt;b&gt;FoundIt&lt;/b&gt;" style="text;html=1;align=center;verticalAlign=middle;resizable=0;points=[];autosize=1;strokeColor=none;fillColor=none;" vertex="1" parent="3s-fKFd-hLVdxvox_SW1-29">
          <mxGeometry x="110" width="70" height="30" as="geometry" />
        </mxCell>
        <mxCell id="3s-fKFd-hLVdxvox_SW1-27" value="&lt;span style=&quot;line-height: 115%; font-family: Aptos, sans-serif;&quot;&gt;&lt;font style=&quot;font-size: 11px;&quot;&gt;Διαγραφή/Μπλοκάρισμα χρηστών&lt;/font&gt;&lt;/span&gt;" style="ellipse;whiteSpace=wrap;html=1;fillColor=#d5e8d4;strokeColor=#82b366;" vertex="1" parent="3s-fKFd-hLVdxvox_SW1-29">
          <mxGeometry x="35" y="610" width="220" height="40" as="geometry" />
        </mxCell>
        <mxCell id="3s-fKFd-hLVdxvox_SW1-25" value="&lt;span style=&quot;line-height: 115%; font-family: Aptos, sans-serif;&quot;&gt;&lt;font style=&quot;font-size: 11px;&quot;&gt;Διαχείριση αναφορών&lt;/font&gt;&lt;/span&gt;" style="ellipse;whiteSpace=wrap;html=1;fillColor=#d5e8d4;strokeColor=#82b366;" vertex="1" parent="3s-fKFd-hLVdxvox_SW1-29">
          <mxGeometry x="85" y="555" width="120" height="40" as="geometry" />
        </mxCell>
        <mxCell id="3s-fKFd-hLVdxvox_SW1-11" value="&lt;span style=&quot;line-height: 115%; font-family: Aptos, sans-serif;&quot;&gt;&lt;font style=&quot;font-size: 11px;&quot;&gt;Επιστροφή αντικειμένου που βρέθηκε(Found Item) πίσω στον ιδιοκτήτη του μέσω αγγελίας&lt;br&gt;&lt;/font&gt;&lt;/span&gt;" style="ellipse;whiteSpace=wrap;html=1;align=center;fillColor=#d5e8d4;strokeColor=#82b366;" vertex="1" parent="3s-fKFd-hLVdxvox_SW1-29">
          <mxGeometry x="40" y="470" width="210" height="70" as="geometry" />
        </mxCell>
        <mxCell id="3s-fKFd-hLVdxvox_SW1-8" value="&lt;font style=&quot;font-size: 11px;&quot;&gt;&lt;span style=&quot;line-height: 115%; font-family: Aptos, sans-serif;&quot;&gt;Δημοσίευση αγγελίας εύρεσης αντικειμένου (&lt;/span&gt;&lt;span style=&quot;line-height: 115%; font-family: Aptos, sans-serif;&quot; lang=&quot;EN-GB&quot;&gt;Found&lt;/span&gt;&lt;span style=&quot;line-height: 115%; font-family: Aptos, sans-serif;&quot; lang=&quot;EN-GB&quot;&gt; &lt;/span&gt;&lt;span style=&quot;line-height: 115%; font-family: Aptos, sans-serif;&quot; lang=&quot;EN-GB&quot;&gt;Item&lt;/span&gt;&lt;span style=&quot;line-height: 115%; font-family: Aptos, sans-serif;&quot;&gt;)&lt;/span&gt;&lt;/font&gt;" style="ellipse;whiteSpace=wrap;html=1;fillColor=#d5e8d4;strokeColor=#82b366;" vertex="1" parent="3s-fKFd-hLVdxvox_SW1-29">
          <mxGeometry x="70" y="390" width="150" height="70" as="geometry" />
        </mxCell>
        <mxCell id="3s-fKFd-hLVdxvox_SW1-23" value="&lt;span style=&quot;line-height: 115%; font-family: Aptos, sans-serif;&quot;&gt;&lt;font style=&quot;font-size: 11px;&quot;&gt;Αποθήκευση Αντικειμένου σε Επιχείρηση&amp;nbsp;&lt;/font&gt;&lt;/span&gt;&lt;span style=&quot;line-height: 115%; font-family: Aptos, sans-serif;&quot;&gt;&lt;font style=&quot;font-size: 11px;&quot;&gt;Drop-off Point&lt;/font&gt;&lt;/span&gt;" style="ellipse;whiteSpace=wrap;html=1;fillColor=#d5e8d4;strokeColor=#82b366;" vertex="1" parent="3s-fKFd-hLVdxvox_SW1-29">
          <mxGeometry x="40" y="340" width="210" height="40" as="geometry" />
        </mxCell>
        <mxCell id="3s-fKFd-hLVdxvox_SW1-19" value="&lt;span style=&quot;line-height: 115%; font-family: Aptos, sans-serif;&quot;&gt;&lt;font style=&quot;font-size: 11px;&quot;&gt;Ορισμός καταστήματος (Local Business) ως Drop-off Point&lt;/font&gt;&lt;/span&gt;" style="ellipse;whiteSpace=wrap;html=1;fillColor=#d5e8d4;strokeColor=#82b366;" vertex="1" parent="3s-fKFd-hLVdxvox_SW1-29">
          <mxGeometry x="65" y="250" width="160" height="80" as="geometry" />
        </mxCell>
        <mxCell id="3s-fKFd-hLVdxvox_SW1-15" value="&lt;font style=&quot;font-size: 11px;&quot;&gt;&lt;span style=&quot;line-height: 115%; font-family: Aptos, sans-serif;&quot;&gt;Αξιολόγηση Ευρετή (F&lt;/span&gt;&lt;span style=&quot;line-height: 115%; font-family: Aptos, sans-serif;&quot; lang=&quot;EN-US&quot;&gt;i&lt;/span&gt;&lt;span style=&quot;line-height: 115%; font-family: Aptos, sans-serif;&quot;&gt;nder)&lt;/span&gt;&lt;/font&gt;" style="ellipse;whiteSpace=wrap;html=1;fillColor=#d5e8d4;strokeColor=#82b366;" vertex="1" parent="3s-fKFd-hLVdxvox_SW1-29">
          <mxGeometry x="85" y="190" width="120" height="50" as="geometry" />
        </mxCell>
        <mxCell id="3s-fKFd-hLVdxvox_SW1-13" value="&lt;a name=&quot;_Hlk194663931&quot;&gt;&lt;span style=&quot;line-height: 115%; font-family: Aptos, sans-serif;&quot;&gt;&lt;font style=&quot;font-size: 11px;&quot;&gt;Αναζήτηση χαμένου αντικειμένου(Lost Item) μέσω ήδη υπάρχουσας αγγελίας&lt;/font&gt;&lt;/span&gt;&lt;/a&gt;" style="ellipse;whiteSpace=wrap;html=1;fillColor=#d5e8d4;strokeColor=#82b366;" vertex="1" parent="3s-fKFd-hLVdxvox_SW1-29">
          <mxGeometry x="50" y="100" width="190" height="80" as="geometry" />
        </mxCell>
        <mxCell id="3s-fKFd-hLVdxvox_SW1-6" value="&lt;span style=&quot;line-height: 115%; font-family: Aptos, sans-serif;&quot;&gt;&lt;font style=&quot;font-size: 11px;&quot;&gt;Δημοσίευση αγγελίας για χαμένο αντικείμενο (Lost item)&lt;/font&gt;&lt;/span&gt;" style="ellipse;whiteSpace=wrap;html=1;fillColor=#d5e8d4;strokeColor=#82b366;" vertex="1" parent="3s-fKFd-hLVdxvox_SW1-29">
          <mxGeometry x="65" y="30" width="160" height="60" as="geometry" />
        </mxCell>
        <mxCell id="3s-fKFd-hLVdxvox_SW1-33" value="&amp;lt;&amp;lt;includes&amp;gt;&amp;gt;" style="endArrow=open;endSize=12;dashed=1;html=1;rounded=0;entryX=0.95;entryY=0.31;entryDx=0;entryDy=0;entryPerimeter=0;" edge="1" parent="3s-fKFd-hLVdxvox_SW1-29" target="3s-fKFd-hLVdxvox_SW1-8">
          <mxGeometry width="160" relative="1" as="geometry">
            <mxPoint x="240" y="139.47" as="sourcePoint" />
            <mxPoint x="300" y="390" as="targetPoint" />
            <Array as="points">
              <mxPoint x="385" y="270" />
            </Array>
          </mxGeometry>
        </mxCell>
        <mxCell id="3s-fKFd-hLVdxvox_SW1-34" value="&amp;lt;&amp;lt;includes&amp;gt;&amp;gt;" style="endArrow=open;endSize=12;dashed=1;html=1;rounded=0;entryX=1;entryY=0.5;entryDx=0;entryDy=0;exitX=0.942;exitY=0.202;exitDx=0;exitDy=0;exitPerimeter=0;" edge="1" parent="3s-fKFd-hLVdxvox_SW1-29" source="3s-fKFd-hLVdxvox_SW1-11" target="3s-fKFd-hLVdxvox_SW1-6">
          <mxGeometry width="160" relative="1" as="geometry">
            <mxPoint x="252" y="510" as="sourcePoint" />
            <mxPoint x="505" y="340" as="targetPoint" />
            <Array as="points">
              <mxPoint x="435" y="260" />
            </Array>
          </mxGeometry>
        </mxCell>
        <mxCell id="3s-fKFd-hLVdxvox_SW1-35" value="&amp;lt;&amp;lt;includes&amp;gt;&amp;gt;" style="endArrow=open;endSize=12;dashed=1;html=1;rounded=0;entryX=1.017;entryY=0.4;entryDx=0;entryDy=0;entryPerimeter=0;exitX=1;exitY=0;exitDx=0;exitDy=0;" edge="1" parent="3s-fKFd-hLVdxvox_SW1-29" source="3s-fKFd-hLVdxvox_SW1-23" target="3s-fKFd-hLVdxvox_SW1-19">
          <mxGeometry x="0.088" width="160" relative="1" as="geometry">
            <mxPoint x="206" y="220" as="sourcePoint" />
            <mxPoint x="179" y="492.53" as="targetPoint" />
            <Array as="points">
              <mxPoint x="325" y="260" />
            </Array>
            <mxPoint as="offset" />
          </mxGeometry>
        </mxCell>
      </root>
    </mxGraphModel>
  </diagram>
</mxfile>
